<svg xmlns="http://www.w3.org/2000/svg" xmlns:xlink="http://www.w3.org/1999/xlink" width="600" zoomAndPan="magnify" viewBox="0 0 450 416.99999" height="556" preserveAspectRatio="xMidYMid meet" version="1.0"><defs><clipPath id="id1"><path d="M 81 76 L 369 76 L 369 342.1875 L 81 342.1875 Z M 81 76 " clip-rule="nonzero"/></clipPath><clipPath id="id2"><path d="M 155 156 L 295 156 L 295 314.582031 L 155 314.582031 Z M 155 156 " clip-rule="nonzero"/></clipPath></defs><g clip-path="url(#id1)"><path fill="#36bcdd" d="M 362.214844 179.117188 L 330.019531 153.949219 C 330.023438 153.835938 330.027344 153.722656 330.027344 153.605469 L 330.027344 99.617188 C 330.027344 92.714844 324.4375 87.117188 317.542969 87.117188 L 300.9375 87.117188 C 294.042969 87.117188 288.453125 92.714844 288.453125 99.617188 L 288.453125 121.457031 L 235.339844 79.9375 C 229.257812 75.1875 220.730469 75.1875 214.648438 79.9375 L 87.773438 179.117188 C 75.164062 188.972656 82.125 209.222656 98.117188 209.222656 L 119.960938 209.222656 L 119.960938 332.601562 C 119.960938 337.894531 124.246094 342.1875 129.535156 342.1875 L 320.453125 342.1875 C 325.742188 342.1875 330.027344 337.894531 330.027344 332.601562 L 330.027344 209.222656 L 351.871094 209.222656 C 367.863281 209.222656 374.820312 188.972656 362.214844 179.117188 Z M 362.214844 179.117188 " fill-opacity="1" fill-rule="nonzero"/></g><g clip-path="url(#id2)"><path fill="#ffffff" d="M 283.359375 236.578125 C 298.722656 211.171875 296.644531 177.628906 286.660156 157.640625 C 286.214844 156.757812 285.347656 156.179688 284.351562 156.117188 C 283.367188 156.058594 282.429688 156.519531 281.882812 157.339844 C 268.386719 177.605469 256.105469 191.171875 238.15625 209.121094 C 221.300781 225.996094 203.855469 243.441406 193.304688 243.441406 C 190.566406 243.441406 187.953125 241.507812 185.183594 239.453125 C 182.070312 237.164062 178.546875 234.554688 174.246094 234.554688 C 168.164062 234.554688 162.480469 239.515625 155.816406 250.621094 C 155.304688 251.472656 155.292969 252.546875 155.785156 253.410156 C 156.269531 254.273438 157.195312 254.816406 158.191406 254.816406 C 174.183594 254.816406 177.878906 260.972656 182.160156 268.105469 C 186.503906 275.363281 191.417969 283.554688 209.085938 284.070312 C 209.777344 285.691406 210.417969 287.539062 211.082031 289.457031 C 214.730469 299.945312 219.722656 314.300781 241.625 314.300781 C 244.875 314.300781 248.457031 313.972656 252.289062 313.335938 C 276.660156 309.277344 277.597656 297.367188 277.292969 293.828125 C 276.601562 285.414062 267.796875 278.574219 257.679688 278.574219 C 250.28125 278.574219 233.75 277.328125 231.449219 266.425781 C 260.257812 264.898438 275.546875 249.488281 283.359375 236.578125 Z M 283.359375 236.578125 " fill-opacity="1" fill-rule="nonzero"/></g><path fill="#ffffff" d="M 171.730469 229.324219 C 172.558594 229.199219 173.371094 229.027344 174.246094 229.027344 C 180.367188 229.027344 185.042969 232.484375 188.460938 235.007812 C 190.027344 236.164062 192.382812 237.910156 193.300781 237.910156 C 200.464844 237.910156 215.613281 223.707031 228.507812 210.933594 C 232.042969 192.496094 228.410156 172.882812 222.699219 160.992188 C 219.160156 153.632812 215.066406 149.746094 210.859375 149.746094 C 210.125 149.746094 209.421875 150.039062 208.902344 150.554688 C 206.488281 152.964844 205.125 157.046875 203.253906 162.695312 C 199.878906 172.804688 194.785156 188.101562 179.636719 203.257812 C 170.664062 212.226562 170.03125 220.945312 171.078125 226.675781 C 171.25 227.589844 171.476562 228.46875 171.730469 229.324219 Z M 171.730469 229.324219 " fill-opacity="1" fill-rule="nonzero"/></svg>