<?xml version="1.0" standalone="no"?>
<!DOCTYPE svg PUBLIC "-//W3C//DTD SVG 20010904//EN"
 "http://www.w3.org/TR/2001/REC-SVG-20010904/DTD/svg10.dtd">
<svg version="1.0" xmlns="http://www.w3.org/2000/svg"
 width="1280.000000pt" height="716.000000pt" viewBox="0 0 1280.000000 716.000000"
 preserveAspectRatio="xMidYMid meet">
<metadata>
Created by potrace 1.15, written by Peter Selinger 2001-2017
</metadata>
<g transform="translate(0.000000,716.000000) scale(0.100000,-0.100000)"
fill="#000000" stroke="none">
<path d="M2771 7135 c-66 -56 -105 -188 -99 -335 4 -127 29 -179 134 -285 201
-204 432 -513 450 -604 7 -36 5 -36 -62 -16 -68 21 -142 19 -180 -4 -27 -17
-71 -63 -147 -156 l-24 -29 -17 33 c-30 56 -86 110 -197 187 -177 122 -238
140 -224 67 19 -101 79 -149 328 -263 53 -25 95 -49 93 -55 -3 -5 -13 -36 -23
-67 -10 -32 -20 -58 -23 -58 -3 0 -18 22 -35 48 -19 30 -59 67 -110 104 -107
77 -353 225 -387 233 -25 6 -28 4 -28 -18 0 -13 19 -62 43 -108 l42 -84 240
-160 240 -160 23 -100 c34 -151 91 -257 207 -390 87 -98 125 -151 125 -171 0
-4 -17 -4 -38 -2 -44 6 -198 76 -502 228 -277 138 -281 139 -203 58 73 -77 86
-110 54 -141 -21 -22 -27 -22 -287 -20 -175 2 -263 -1 -259 -8 4 -5 78 -45
164 -89 362 -181 557 -317 607 -425 29 -62 30 -96 4 -151 -31 -63 -102 -111
-320 -217 -373 -182 -533 -313 -835 -686 -224 -276 -261 -298 -610 -356 -408
-69 -570 -124 -743 -255 -83 -62 -154 -138 -166 -177 -7 -23 -6 -23 78 -23 97
0 187 21 527 124 490 147 665 193 882 231 220 39 265 57 527 208 147 85 263
123 434 143 669 78 974 144 1191 258 105 55 297 183 362 240 63 57 98 122 84
159 -15 38 -47 55 -184 97 -310 96 -472 189 -512 294 -15 40 -16 46 -1 75 26
50 68 66 171 65 87 0 180 -21 213 -47 8 -6 29 -43 48 -83 84 -177 318 -301
501 -265 141 27 140 27 163 -12 24 -41 86 -67 157 -67 57 0 76 11 113 65 l31
45 67 0 c124 0 302 -66 358 -134 25 -28 25 -31 8 -43 -10 -7 -45 -13 -81 -13
-61 0 -65 -2 -160 -67 -121 -82 -234 -135 -338 -159 -88 -20 -337 -26 -517
-11 -55 4 -98 4 -98 -1 0 -13 197 -59 330 -78 281 -40 496 4 714 146 53 34
115 67 139 72 25 6 108 7 205 3 116 -5 162 -4 162 4 0 6 -40 31 -89 56 -153
76 -191 123 -209 256 -23 176 -152 333 -347 425 -205 95 -512 131 -730 83 -53
-11 -105 -17 -116 -14 -43 14 -164 244 -200 381 -27 103 -28 246 -5 430 17
131 17 147 3 218 -23 114 -65 173 -251 359 -281 280 -394 456 -655 1019 -69
149 -118 218 -156 218 -13 0 -37 -11 -54 -25z"/>
<path d="M2479 6693 c-18 -44 4 -153 47 -234 68 -129 252 -299 457 -423 92
-55 137 -68 137 -40 0 76 -197 357 -389 557 -98 102 -162 152 -208 162 -30 6
-34 4 -44 -22z"/>
<path d="M2427 6333 c-4 -3 -7 -27 -7 -52 0 -105 75 -195 266 -321 127 -84
195 -120 225 -120 19 0 21 4 15 32 -18 88 -108 216 -221 312 -140 118 -250
177 -278 149z"/>
<path d="M600 5924 c0 -27 80 -197 103 -220 12 -12 299 -187 637 -390 l615
-368 140 -38 c77 -21 146 -36 153 -33 6 2 12 18 12 35 0 25 6 33 35 47 19 9
35 22 35 29 0 40 -254 335 -400 463 -126 112 -478 359 -592 417 -53 27 -98 32
-98 10 0 -8 29 -39 64 -70 71 -63 112 -116 126 -166 22 -77 -33 -90 -172 -41
-169 60 -288 122 -504 262 -121 79 -154 93 -154 63z"/>
<path d="M12642 5560 c-83 -30 -203 -97 -389 -218 -169 -111 -226 -142 -259
-142 -23 0 -11 42 30 106 19 27 43 69 55 92 19 38 20 42 5 42 -21 0 -104 -46
-203 -113 -122 -82 -349 -269 -641 -528 -292 -259 -363 -319 -375 -319 -4 0
74 80 173 178 179 176 241 247 228 259 -3 4 -46 -21 -94 -55 -373 -262 -596
-398 -887 -541 -228 -113 -322 -177 -298 -201 9 -10 39 -3 135 29 220 73 343
101 463 107 61 3 116 1 123 -4 26 -17 -13 -66 -151 -190 -226 -203 -322 -322
-334 -411 -5 -36 -3 -42 19 -52 72 -32 371 105 687 315 110 73 224 142 253
154 29 11 121 46 203 77 375 144 714 353 921 567 77 79 104 115 104 136 0 19
-35 11 -232 -56 -92 -31 -170 -53 -174 -49 -18 17 85 98 364 285 188 127 279
210 361 331 55 81 71 120 71 176 l0 45 -52 0 c-29 -1 -77 -9 -106 -20z"/>
<path d="M2340 5489 c0 -6 5 -20 11 -32 18 -35 138 -199 173 -235 84 -91 341
-234 361 -202 24 39 -241 309 -422 430 -70 47 -123 64 -123 39z"/>
<path d="M8372 4555 c-175 -32 -312 -137 -393 -301 -41 -81 -48 -90 -84 -102
-47 -16 -158 -19 -267 -8 -49 5 -78 4 -78 -2 0 -5 60 -49 133 -97 172 -114
217 -151 217 -178 0 -12 -7 -56 -16 -97 -28 -134 -6 -230 87 -371 47 -72 51
-83 46 -122 -4 -33 -14 -50 -48 -80 -52 -46 -179 -116 -296 -164 -123 -49
-200 -89 -261 -135 -49 -36 -112 -109 -112 -130 0 -23 145 14 443 112 42 14
23 -6 -31 -34 -111 -56 -511 -211 -854 -330 -348 -121 -576 -222 -654 -290
-40 -34 -60 -71 -45 -80 4 -3 164 24 356 59 454 84 603 107 651 103 l39 -3
-57 -43 c-68 -52 -92 -85 -84 -118 19 -73 190 -25 646 181 228 103 294 130
285 116 -12 -20 -476 -315 -582 -371 -35 -18 -63 -38 -63 -45 0 -7 57 -32 128
-56 121 -42 132 -44 237 -43 154 0 300 42 510 147 234 115 457 306 432 370 -3
8 -43 27 -88 42 -46 15 -95 35 -110 46 -43 30 -66 93 -103 276 -51 253 -100
362 -227 499 -86 92 -113 147 -113 229 0 100 63 201 146 236 40 17 53 7 103
-74 80 -131 189 -214 314 -237 153 -29 216 13 236 155 17 120 57 159 142 136
91 -24 163 -92 221 -206 48 -97 65 -185 60 -317 -6 -151 -29 -210 -113 -295
-52 -51 -72 -64 -129 -82 -130 -40 -296 -23 -405 42 -73 44 -122 102 -178 212
-26 52 -52 91 -57 88 -15 -10 2 -165 30 -259 33 -116 76 -194 147 -270 108
-116 219 -168 398 -186 134 -13 256 0 337 37 l57 26 20 -28 c65 -90 161 -198
319 -363 535 -555 558 -597 757 -1390 120 -480 173 -631 250 -715 39 -43 44
-45 95 -45 45 0 59 5 88 30 58 52 71 102 71 280 -1 161 -11 236 -61 435 -36
144 -127 416 -190 568 l-54 131 167 -171 c177 -180 246 -239 325 -279 79 -40
124 -28 134 36 6 34 0 43 -113 176 -435 514 -674 859 -674 975 0 19 -1 86 -2
149 -4 406 -5 387 32 475 29 68 34 92 34 160 1 131 -57 287 -157 422 -45 61
-93 103 -191 166 -92 59 -85 101 51 303 63 94 84 133 84 158 l0 33 -42 -8
c-24 -4 -99 -21 -168 -38 -247 -59 -537 -107 -715 -118 -178 -10 -223 27 -286
234 -47 156 -77 217 -136 283 -76 84 -171 128 -338 155 -107 18 -156 18 -253
0z"/>
<path d="M2042 4523 c-53 -19 -52 -39 3 -70 96 -54 437 -156 564 -169 58 -6
63 -6 54 10 -15 28 -161 133 -243 175 -41 22 -99 46 -129 55 -68 20 -192 19
-249 -1z"/>
<path d="M2023 4297 c-45 -17 -49 -24 -27 -48 48 -55 268 -119 404 -119 88 1
120 12 120 43 0 18 -51 47 -148 84 -131 49 -278 66 -349 40z"/>
<path d="M1866 4101 c-33 -3 -61 -11 -63 -17 -4 -12 68 -45 137 -62 117 -29
344 -45 398 -28 33 11 24 38 -20 58 -83 39 -179 58 -288 56 -58 -1 -132 -4
-164 -7z"/>
<path d="M1295 3955 c-102 -16 -174 -35 -181 -47 -9 -15 13 -34 56 -48 39 -13
40 -14 23 -31 -11 -10 -68 -28 -138 -43 -123 -27 -201 -58 -219 -88 -14 -23
-9 -26 55 -38 70 -13 776 -16 808 -3 l24 10 -36 40 c-21 22 -37 45 -37 51 0
12 32 23 160 52 129 29 280 81 280 96 0 13 -71 28 -250 50 -139 17 -435 17
-545 -1z"/>
<path d="M11429 3906 c-2 -2 -67 -18 -144 -35 -116 -26 -160 -41 -260 -90
-176 -88 -512 -311 -499 -332 7 -12 346 -11 452 1 97 11 138 31 274 132 155
116 250 222 264 296 l7 32 -45 0 c-25 0 -47 -2 -49 -4z"/>
<path d="M1118 3545 c-120 -17 -233 -47 -301 -81 -61 -31 -182 -126 -198 -156
-11 -20 -9 -20 32 -14 24 3 114 13 199 21 174 16 303 40 495 90 225 58 359
115 341 144 -10 16 -443 13 -568 -4z"/>
<path d="M11090 3409 c-180 -38 -485 -152 -520 -193 -13 -17 -12 -21 12 -41
70 -60 346 -61 532 -3 163 51 255 172 176 229 -38 28 -96 30 -200 8z"/>
<path d="M1285 3319 c-468 -50 -751 -117 -930 -221 -92 -54 -198 -176 -207
-238 -3 -24 0 -25 55 -28 69 -4 320 56 514 122 268 91 579 228 671 295 40 30
58 71 30 71 -7 0 -22 2 -33 4 -11 2 -56 0 -100 -5z"/>
<path d="M10968 3034 c-190 -35 -415 -104 -425 -131 -7 -19 26 -63 63 -85 43
-25 196 -41 396 -42 164 0 179 1 205 20 65 49 69 160 8 221 -31 31 -37 33
-101 32 -38 -1 -104 -7 -146 -15z"/>
<path d="M10680 2610 c-151 -8 -200 -16 -200 -34 0 -62 162 -152 665 -368 205
-88 261 -108 305 -108 48 0 60 18 60 87 -1 86 -78 215 -191 317 -115 104 -249
126 -639 106z"/>
<path d="M10507 2223 c-4 -3 -7 -19 -7 -35 0 -33 60 -97 225 -239 55 -47 219
-195 364 -328 193 -177 270 -241 285 -239 72 11 56 229 -30 400 -96 192 -169
252 -434 358 -149 59 -263 90 -334 90 -35 0 -66 -3 -69 -7z"/>
</g>
</svg>
