<?xml version="1.0" encoding="iso-8859-1"?>
<!-- Generator: Adobe Illustrator 16.0.0, SVG Export Plug-In . SVG Version: 6.00 Build 0)  -->
<!DOCTYPE svg PUBLIC "-//W3C//DTD SVG 1.1//EN" "http://www.w3.org/Graphics/SVG/1.1/DTD/svg11.dtd">
<svg version="1.1" id="Capa_1" xmlns="http://www.w3.org/2000/svg" xmlns:xlink="http://www.w3.org/1999/xlink" x="0px" y="0px"
	 width="349.796px" height="349.796px" viewBox="0 0 349.796 349.796" style="enable-background:new 0 0 349.796 349.796;"
	 xml:space="preserve">
<g>
	<g>
		<path d="M336.478,230.992c-3.009-4.822-6.89-9.052-11.247-12.734c-8.737-7.355-19.055-12.816-29.778-17.207
			c-10.759-4.416-22.134-7.482-33.566-9.877c-8.726-1.789-17.521-2.997-26.282-3.857c-6.262-14.622-14.383-28.332-23.817-38.417
			l0.221,0.093l1.255-2.794l-8.215-3.677c-1.324-1.109-2.719-2.045-4.102-2.986l-11.143-14.25
			c24.945-9.155,42.92-32.735,43.698-60.655c0-0.464,17.335-1.133,17.335-1.133l-17.498-12.339l17.115-14.582l-18.857-0.563
			c-5.229-16.295-20.507-28.111-38.527-28.111c-20.682,0-37.703,15.522-40.143,35.547c-0.012,0-0.012,0.012-0.012,0.012
			C143.096,42.06,133.923,26.747,124.5,0c-21.024,24.998-19.723,52.679-13.408,63.066c-13.396,1.476-39.144-6.361-50.373-12.479
			c19.583,43.785,47.602,65.175,75.039,71.042c9.289,4.938,19.868,7.79,31.133,7.79c1.202,0,2.358-0.116,3.532-0.18l-3.672,6.25
			l-8.476,4.932c-0.297,0.232-0.593,0.5-0.89,0.744l-4.333,1.412l0.563,1.714c-12.636,11.316-23.272,29.244-30.731,48.16
			c-3.962,0.94-7.727,1.928-11.16,3.043c-6.727,2.196-12.473,4.381-17.108,6.391c-4.63,1.975-8.214,3.648-10.648,4.834
			c-2.428,1.161-3.724,1.766-3.724,1.766s5.519-1.557,15.156-4.346c4.839-1.312,10.684-2.857,17.451-4.264
			c2.452-0.488,5.095-0.918,7.785-1.359c-1.237,3.509-2.393,6.994-3.404,10.457c-3.167,0.465-6.257,0.812-9.499,1.486
			c-5.827,1.209-11.764,2.673-17.62,4.706c-5.839,2.01-11.671,4.462-17.132,7.958c-1.365,0.906-2.69,1.721-4.113,2.917
			c-0.668,0.546-1.452,1.139-1.986,1.661l-1.54,1.465l-0.389,0.371l-0.396,0.395l-0.203,0.232l-0.808,0.906
			c-0.522,0.628-1.08,1.186-1.568,1.836c-0.987,1.278-1.94,2.58-2.736,3.975c-3.451,5.449-5.234,11.885-5.211,17.846
			c0,2.986,0.465,5.855,1.214,8.481c0.715,2.638,1.726,5.054,2.94,7.204c2.387,4.334,5.292,7.75,8.313,10.225
			c2.568,2.207,5.153,3.694,7.482,4.646c-5.28-0.686-10.276-1.44-14.796-2.486c-3.776-0.743-7.227-1.673-10.387-2.695
			c-2.021-2.301-4.653-5.717-6.809-10.107c-2.138-4.463-3.747-9.83-3.985-15.709c-0.128-2.939,0.046-5.995,0.535-9.109
			c0.122-0.767,0.25-1.533,0.395-2.335l0.215-1.011l0.332-1.29l0.308-1.29l0.325-1.068c0.227-0.686,0.389-1.371,0.714-2.115
			c1.104-2.928,2.521-5.739,4.235-8.342c1.685-2.625,3.672-5.077,5.78-7.32c4.212-4.438,8.923-8.121,13.228-10.99
			c2.167-1.395,4.166-2.719,6.024-3.753c1.865-1.046,3.486-2.022,4.863-2.73c2.736-1.464,4.392-2.231,4.392-2.231
			s-1.818,0-4.973,0.488c-1.568,0.256-3.486,0.559-5.641,1.15c-2.138,0.593-4.601,1.243-7.151,2.266
			c-2.568,1.022-5.351,2.195-8.162,3.787c-2.818,1.58-5.676,3.486-8.435,5.775c-2.736,2.289-5.386,4.984-7.709,8.074
			c-2.307,3.092-4.305,6.553-5.746,10.248c-0.395,0.895-0.714,1.906-1.034,2.904l-0.453,1.488l-0.308,1.277l-0.296,1.29l-0.18,0.859
			l-0.133,0.709c-0.175,0.952-0.308,1.894-0.436,2.858c-0.441,3.811-0.441,7.668,0.093,11.34c1.045,7.389,4.281,13.826,8.081,18.194
			c0.947,1.128,1.888,2.138,2.875,3.044c-5.02-2.533-8.336-5.6-10.312-7.971c-0.953-1.207-1.655-2.195-2.062-2.893
			c-0.424-0.709-0.639-1.057-0.639-1.057s0.104,0.395,0.343,1.185c0.203,0.813,0.656,1.94,1.342,3.416
			c1.395,2.928,4.275,6.96,9.161,10.759c4.856,3.834,11.578,7.25,19.479,10.236c7.947,2.812,17.074,5.402,27.089,7.377
			c10.033,2.045,20.774,3.928,32.283,5.602c11.88,1.51,24.126,2.3,36.9,2.648c12.734,0.325,25.893,0.244,39.266-0.337
			c13.373-0.511,26.955-1.731,40.503-3.45c13.524-1.812,27.106-4.01,40.259-7.785c6.588-1.859,13.105-4.02,19.392-6.727
			c6.309-2.708,12.455-5.926,18.09-10.307c2.788-2.184,5.414-4.717,7.691-7.645c1.022-1.232,2.498-3.556,3.044-4.648
			c0.977-1.695,1.731-3.555,2.254-5.518c1.139-3.916,1.023-8.238-0.034-11.945c-1.069-3.729-2.905-6.9-4.95-9.585
			c-4.147-5.356-9.074-9.039-13.931-12.13c-4.892-3.067-9.806-5.473-14.593-7.518c-9.597-4.102-18.775-6.459-26.932-8.145
			c-7.762-1.604-14.64-2.195-20.414-2.416c-0.988-3.266-2.08-6.53-3.254-9.818c6.751,0.779,13.501,1.662,20.217,2.998
			c11.015,2.149,21.82,5.193,32.079,8.992c10.201,3.869,19.892,8.738,27.769,15.047c7.889,6.204,13.908,14.175,15.104,22.818
			c1.324,8.645-1.731,17.139-6.588,23.609c-4.845,6.553-10.817,11.572-16.382,15.546c-5.624,3.95-10.864,6.972-15.291,9.272
			c-4.426,2.288-7.981,3.949-10.456,4.996c-2.476,1.068-3.823,1.557-3.823,1.557s1.406-0.291,3.997-1.046
			c2.603-0.755,6.391-1.882,11.096-3.753c4.694-1.859,10.376-4.287,16.511-7.912c6.088-3.625,12.896-8.238,18.752-15.221
			c2.928-3.475,5.589-7.564,7.378-12.328c1.801-4.752,2.649-10.131,2.045-15.627C341.566,241.227,339.486,235.79,336.478,230.992z
			 M208.869,28.542c6.135,0,11.119,4.973,11.119,11.113s-4.984,11.113-11.119,11.113c-6.123,0-11.107-4.973-11.107-11.113
			S202.746,28.542,208.869,28.542z M186.76,126.388l7.191,9.173c-0.43-0.192-0.837-0.477-1.267-0.656c0,0-6.448-2.76-6.239-1.929
			c-2.016-0.401-4.037-0.842-6.123-0.842c-3.102,0-6.088,0.726-9.051,1.702l2.841-4.833
			C178.469,128.543,182.704,127.649,186.76,126.388z M85.833,286.726c-1.284-0.14-2.521-0.291-3.793-0.441
			c-0.215-0.047-0.43-0.128-0.668-0.221c-1.272-0.43-3.067-1.313-5.008-2.777c-1.929-1.51-4.066-3.59-6.019-6.297
			c-1.905-2.73-3.776-5.996-4.961-9.748c-1.191-3.73-1.737-7.89-1.237-12.025c0.569-4.137,2.138-8.203,4.851-11.921
			c0.656-0.953,1.417-1.836,2.202-2.73c0.371-0.453,0.83-0.872,1.237-1.313l0.633-0.65l0.07-0.081l0.07-0.058l0.395-0.35
			l1.592-1.417c0.523-0.465,0.929-0.674,1.382-1.022c0.796-0.639,1.952-1.312,3.01-1.998c4.328-2.707,9.445-4.857,14.668-6.751
			c5.258-1.858,10.684-3.485,16.121-4.868c1.237-0.302,2.429-0.534,3.666-0.836c-0.645,2.846-1.145,5.623-1.569,8.33
			c-9.08,2.451-17.823,5.973-24.917,11.631c-3.602,2.834-6.744,6.215-9.027,10.107c-2.277,3.857-3.584,8.296-3.474,12.596
			c0.105,4.287,1.581,8.236,3.671,11.328c2.086,3.125,4.712,5.438,7.309,7.238c5.031,3.299,9.957,4.764,14.076,5.67
			C95.175,287.644,90.394,287.214,85.833,286.726z M118.018,289.77c-1.621-0.163-3.189-0.302-4.77-0.465
			c0.726-0.023,1.115-0.023,1.115-0.023s-1.226-0.163-3.462-0.581s-5.531-1.068-9.504-2.439c-3.927-1.371-8.673-3.439-12.908-7.076
			c-2.108-1.801-4.084-3.996-5.438-6.611c-1.359-2.602-2.085-5.6-1.83-8.621c0.378-6.146,4.851-12.117,11.172-16.242
			c5.339-3.555,11.856-6.088,18.88-7.819c-0.157,2.067-0.284,4.112-0.284,6.019c0,16.951,6.21,32.404,16.37,44.441
			C124.216,290.189,121.003,290.072,118.018,289.77z M219.512,288.468c-9.213,0.837-18.462,1.499-27.605,1.987
			c-13.048,0.604-25.904,0.871-38.342,0.778c-3.148-0.023-6.187-0.128-9.277-0.186c-13.304-10.619-21.93-26.828-21.93-45.115
			c0-32.846,27.426-102.413,57.954-102.413c30.534,0,57.954,69.567,57.954,102.413C238.265,262.756,231.026,277.873,219.512,288.468
			z M262.048,215.248c7.681,2.394,16.115,5.821,24.748,10.307c4.322,2.266,8.668,4.891,12.723,7.958
			c4.043,3.067,7.912,6.622,10.619,10.62c1.337,1.975,2.312,4.066,2.73,6.064c0.407,2.01,0.302,3.904-0.372,5.786
			c-0.313,0.94-0.755,1.905-1.383,2.835l-0.604,0.977c-0.197,0.278-0.337,0.43-0.5,0.65l-0.453,0.604l-0.615,0.697
			c-1.615,1.871-3.637,3.59-5.845,5.205c-4.427,3.242-9.782,5.879-15.452,8.087c-0.849,0.325-1.743,0.639-2.604,0.964
			c1.558-1.348,3.404-3.078,5.252-5.564c1.313-1.79,2.638-3.998,3.393-6.797c0.79-2.777,0.686-6.24-0.615-9.447
			c-2.707-6.506-8.749-11.27-15.349-15.033c-6.704-3.789-14.303-6.902-22.517-9.436c-2.033-0.65-4.148-1.277-6.228-1.882
			c-0.384-0.093-0.802-0.197-1.186-0.29c-0.952-5.38-2.242-11.004-3.869-16.789C249.232,211.693,255.263,213.156,262.048,215.248z
			 M249.651,245.921c0-2.533-0.175-5.252-0.419-8.087c1.186,0.244,2.359,0.499,3.532,0.767c7.959,1.94,15.384,4.066,21.739,6.867
			c6.309,2.823,11.805,6.285,14.291,10.701c1.242,2.184,1.638,4.531,1.394,6.785c-0.244,2.266-1.034,4.38-1.976,6.192
			c-1.835,3.415-3.834,5.913-5.32,7.61c-4.241,1.452-8.645,2.719-13.141,3.822c-10.806,2.603-22.076,4.555-33.451,6.03
			C244.678,275.177,249.651,261.154,249.651,245.921z"/>
		<path d="M23.482,293.791c7.233,6.273,15.906,11.096,25.056,15.057c9.196,3.998,18.95,6.972,28.907,9.517
			c9.975,2.591,20.287,4.484,30.627,5.855c10.329,1.313,20.722,2.173,30.958,2.476c10.207,0.324,20.275,0.092,29.958-0.465
			c19.397-1.081,37.313-3.766,52.43-6.867c15.139-3.113,27.513-6.669,36.053-9.457c4.275-1.337,7.587-2.627,9.841-3.463
			c2.242-0.848,3.428-1.359,3.428-1.359s-5.077,0.778-13.942,1.905c-8.842,1.093-21.483,2.603-36.622,3.753
			c-15.128,1.197-32.741,2.184-51.593,2.161c-9.411,0-19.096-0.244-28.937-0.778c-9.812-0.604-19.758-1.465-29.622-2.801
			c-9.887-1.242-19.659-2.975-29.186-5.123c-2.405-0.488-4.747-1.069-7.082-1.686l-3.521-0.871l-1.69-0.418l-1.771-0.488
			c-2.44-0.674-4.555-1.336-6.769-2.021c-2.225-0.721-4.403-1.441-6.541-2.219c-8.557-3.126-16.516-6.82-22.964-11.515
			c-6.506-4.624-11.351-10.294-13.704-16.499c-2.394-6.191-2.335-12.779-1.133-18.473c1.272-5.717,3.305-10.643,5.333-14.523
			c2.033-3.881,3.875-6.867,5.246-8.818c1.342-1.976,2.138-2.975,2.138-2.975s-1.034,0.767-2.794,2.416
			c-1.737,1.662-4.316,4.148-7.105,7.785c-2.771,3.602-5.972,8.283-8.29,14.488c-2.33,6.111-3.817,14.105-1.679,22.633
			C10.556,279.545,16.22,287.609,23.482,293.791z"/>
		<path d="M301.854,305.734c-5.739,2.684-12.362,5.391-19.601,8.25c-7.227,2.834-15.22,5.483-23.69,8.145
			c-8.481,2.625-17.532,4.973-26.979,7.029c-9.423,2.068-19.24,3.811-29.279,5.158c-9.992,1.359-20.338,2.23-30.476,2.66
			c-10.387,0.407-20.582,0.453-30.755,0.059c-10.102-0.383-20.024-1.186-29.563-2.37c-9.545-1.173-18.718-2.788-27.345-4.671
			c-8.609-1.894-16.62-4.229-23.958-6.623c-7.308-2.439-13.896-5.1-19.629-7.68c-5.717-2.637-10.591-5.217-14.518-7.518
			c-7.854-4.601-11.875-8.039-11.875-8.039s3.178,4.275,10.329,10.213c3.567,2.985,8.11,6.378,13.634,9.829
			c5.484,3.497,11.967,6.982,19.258,10.282c7.297,3.346,15.482,6.367,24.283,9.016c8.795,2.685,18.265,4.881,28.152,6.554
			c9.887,1.673,20.188,2.765,30.673,3.381c10.457,0.499,21.222,0.534,31.766,0c10.8-0.488,21.355-1.661,31.754-3.335
			c10.364-1.695,20.495-3.881,30.116-6.518c9.631-2.638,18.775-5.729,27.314-8.981c8.563-3.229,16.406-6.878,23.552-10.376
			c7.146-3.484,13.454-7.168,18.974-10.514c5.507-3.324,10.107-6.576,13.86-9.249c7.482-5.449,11.282-9.109,11.282-9.109
			s-4.427,2.858-12.525,7.122C312.602,300.645,307.594,303.039,301.854,305.734z"/>
		<path d="M209.637,45.197c3.066,0,5.554-2.475,5.554-5.542s-2.487-5.554-5.554-5.554h-0.012c0.232,0.436,0.395,0.912,0.395,1.435
			c0,1.702-1.359,3.084-3.067,3.084c-0.999,0-1.835-0.5-2.394-1.226c-0.302,0.691-0.487,1.452-0.487,2.248
			C204.071,42.722,206.546,45.197,209.637,45.197z"/>
	</g>
</g>
<g>
</g>
<g>
</g>
<g>
</g>
<g>
</g>
<g>
</g>
<g>
</g>
<g>
</g>
<g>
</g>
<g>
</g>
<g>
</g>
<g>
</g>
<g>
</g>
<g>
</g>
<g>
</g>
<g>
</g>
</svg>
